
<global>
amp_veltrack=0
ampeg_attack=0.015
ampeg_release=2.5
</global>

<group>
group_label=PP
loop_mode=loop_continuous
xf_cccurve=gain
xfin_hicc1=42
xfout_hicc1=85
xfout_locc1=42

<region>
hikey=a#2
hivel=127
lokey=a2
loop_end=299784
loop_start=111412
loop_xfade=47093
lovel=0
offset=17158
pitch_keycenter=a#2
release_start=302492
release_xfade=18416
sample=Cellos_espressivo_PP_A#2.opus
</region>

<region>
hikey=a#3
hivel=127
lokey=a3
loop_end=299966
loop_start=111479
loop_xfade=47121
lovel=0
offset=16624
pitch_keycenter=a#3
release_start=311697
release_xfade=18427
sample=Cellos_espressivo_PP_A#3.opus
</region>

<region>
hikey=a#4
hivel=127
lokey=a4
loop_end=299842
loop_start=111433
loop_xfade=47102
lovel=0
offset=15140
pitch_keycenter=a#4
release_start=309718
release_xfade=18420
sample=Cellos_espressivo_PP_A#4.opus
</region>

<region>
hivel=127
key=c2
loop_end=290130
loop_start=107824
loop_xfade=45576
lovel=0
offset=5684
release_start=303487
release_xfade=17823
sample=Cellos_espressivo_PP_C2.opus
</region>

<region>
hikey=c3
hivel=127
lokey=b2
loop_end=288077
loop_start=107061
loop_xfade=45254
lovel=0
pitch_keycenter=c3
release_start=311510
release_xfade=17697
sample=Cellos_espressivo_PP_C3.opus
</region>

<region>
hikey=c4
hivel=127
lokey=b3
loop_end=299966
loop_start=111479
loop_xfade=47121
lovel=0
offset=18901
pitch_keycenter=c4
release_start=303258
release_xfade=18427
sample=Cellos_espressivo_PP_C4.opus
</region>

<region>
hikey=c5
hivel=127
lokey=b4
loop_end=298779
loop_start=111038
loop_xfade=46935
lovel=0
offset=11470
pitch_keycenter=c5
release_start=315763
release_xfade=18354
sample=Cellos_espressivo_PP_C5.opus
</region>

<region>
hikey=d2
hivel=127
lokey=c#2
loop_end=295028
loop_start=109644
loop_xfade=46346
lovel=0
offset=9077
pitch_keycenter=d2
release_start=319026
release_xfade=18124
sample=Cellos_espressivo_PP_D2.opus
</region>

<region>
hikey=d3
hivel=127
lokey=c#3
loop_end=299966
loop_start=111479
loop_xfade=47121
lovel=0
offset=19212
pitch_keycenter=d3
release_start=321805
release_xfade=18427
sample=Cellos_espressivo_PP_D3.opus
</region>

<region>
hikey=d4
hivel=127
lokey=c#4
loop_end=287266
loop_start=106760
loop_xfade=45126
lovel=0
pitch_keycenter=d4
release_start=298284
release_xfade=17647
sample=Cellos_espressivo_PP_D4.opus
</region>

<region>
end=362772
hikey=d5
hivel=127
lokey=c#5
loop_end=299966
loop_start=111479
loop_xfade=47121
lovel=0
offset=23194
pitch_keycenter=d5
release_start=307617
release_xfade=18427
sample=Cellos_espressivo_PP_D5.opus
</region>

<region>
hikey=e2
hivel=127
lokey=d#2
loop_end=296019
loop_start=110012
loop_xfade=46501
lovel=0
offset=11533
pitch_keycenter=e2
release_start=318356
release_xfade=18185
sample=Cellos_espressivo_PP_E2.opus
</region>

<region>
hikey=e3
hivel=127
lokey=d#3
loop_end=299066
loop_start=111145
loop_xfade=46980
lovel=0
offset=16214
pitch_keycenter=e3
release_start=316775
release_xfade=18372
sample=Cellos_espressivo_PP_E3.opus
</region>

<region>
hikey=e4
hivel=127
lokey=d#4
loop_end=287896
loop_start=106994
loop_xfade=45225
lovel=0
offset=6631
pitch_keycenter=e4
release_start=291869
release_xfade=17686
sample=Cellos_espressivo_PP_E4.opus
</region>

<region>
hikey=e5
hivel=127
lokey=d#5
loop_end=297977
loop_start=110740
loop_xfade=46809
lovel=0
offset=13846
pitch_keycenter=e5
release_start=309701
release_xfade=18305
sample=Cellos_espressivo_PP_E5.opus
</region>

<region>
hikey=f#2
hivel=127
lokey=f2
loop_end=288775
loop_start=107320
loop_xfade=45363
lovel=0
pitch_keycenter=f#2
release_start=312264
release_xfade=17740
sample=Cellos_espressivo_PP_F#2.opus
</region>

<region>
hikey=f#3
hivel=127
lokey=f3
loop_end=289382
loop_start=107546
loop_xfade=45459
lovel=0
offset=8964
pitch_keycenter=f#3
release_start=289374
release_xfade=17777
sample=Cellos_espressivo_PP_F#3.opus
</region>

<region>
hikey=f#4
hivel=127
lokey=f4
loop_end=285673
loop_start=106168
loop_xfade=44876
lovel=0
pitch_keycenter=f#4
release_start=303099
release_xfade=17549
sample=Cellos_espressivo_PP_F#4.opus
</region>

<region>
hikey=F6
hivel=127
lokey=f5
loop_end=296403
loop_start=110155
loop_xfade=46562
lovel=0
offset=14808
pitch_keycenter=F#5
release_start=299493
release_xfade=18209
sample=Cellos_espressivo_PP_F#5.opus
</region>

<region>
hikey=g#2
hivel=127
lokey=g2
loop_end=291190
loop_start=108218
loop_xfade=45743
lovel=0
offset=4776
pitch_keycenter=g#2
release_start=295393
release_xfade=17888
sample=Cellos_espressivo_PP_G#2.opus
</region>

<region>
hikey=g#3
hivel=127
lokey=g3
loop_end=289357
loop_start=107537
loop_xfade=45455
lovel=0
offset=1589
pitch_keycenter=g#3
release_start=312894
release_xfade=17776
sample=Cellos_espressivo_PP_G#3.opus
</region>

<region>
hikey=g#4
hivel=127
lokey=g4
loop_end=295292
loop_start=109742
loop_xfade=46387
lovel=0
offset=10487
pitch_keycenter=g#4
release_start=310202
release_xfade=18140
sample=Cellos_espressivo_PP_G#4.opus
</region>
</group>

<group>
group_label=MF
loop_mode=loop_continuous
xf_cccurve=gain
xfin_hicc1=85
xfin_locc1=42
xfout_hicc1=127
xfout_locc1=85

<region>
hikey=a#2
hivel=127
lokey=a2
loop_end=289410
loop_start=107556
loop_xfade=45463
lovel=0
offset=2969
pitch_keycenter=a#2
release_start=294569
release_xfade=17779
sample=Cellos_espressivo_MF_A#2.opus
</region>

<region>
hikey=a#3
hivel=127
lokey=a3
loop_end=290114
loop_start=107818
loop_xfade=45574
lovel=0
offset=4828
pitch_keycenter=a#3
release_start=300202
release_xfade=17822
sample=Cellos_espressivo_MF_A#3.opus
</region>

<region>
hikey=a#4
hivel=127
lokey=a4
loop_end=288876
loop_start=107358
loop_xfade=45379
lovel=0
offset=3541
pitch_keycenter=a#4
release_start=306598
release_xfade=17746
sample=Cellos_espressivo_MF_A#4.opus
</region>

<region>
hivel=127
key=c2
loop_end=290916
loop_start=108116
loop_xfade=45700
lovel=0
offset=4715
release_start=294319
release_xfade=17871
sample=Cellos_espressivo_MF_C2.opus
</region>

<region>
hikey=c3
hivel=127
lokey=b2
loop_end=287890
loop_start=106991
loop_xfade=45224
lovel=0
offset=2891
pitch_keycenter=c3
release_start=295296
release_xfade=17686
sample=Cellos_espressivo_MF_C3.opus
</region>

<region>
hikey=c4
hivel=127
lokey=b3
loop_end=289946
loop_start=107755
loop_xfade=45547
lovel=0
offset=1105
pitch_keycenter=c4
release_start=303538
release_xfade=17812
sample=Cellos_espressivo_MF_C4.opus
</region>

<region>
hikey=c5
hivel=127
lokey=b4
loop_end=286349
loop_start=106419
loop_xfade=44982
lovel=0
offset=4496
pitch_keycenter=c5
release_start=307088
release_xfade=17591
sample=Cellos_espressivo_MF_C5.opus
</region>

<region>
hikey=d2
hivel=127
lokey=c#2
loop_end=289216
loop_start=107484
loop_xfade=45433
lovel=0
offset=1631
pitch_keycenter=d2
release_start=290480
release_xfade=17767
sample=Cellos_espressivo_MF_D2.opus
</region>

<region>
hikey=d3
hivel=127
lokey=c#3
loop_end=290001
loop_start=107776
loop_xfade=45556
lovel=0
offset=3231
pitch_keycenter=d3
release_start=301376
release_xfade=17815
sample=Cellos_espressivo_MF_D3.opus
</region>

<region>
hikey=d4
hivel=127
lokey=c#4
loop_end=287481
loop_start=106839
loop_xfade=45160
lovel=0
offset=3210
pitch_keycenter=d4
release_start=307000
release_xfade=17660
sample=Cellos_espressivo_MF_D4.opus
</region>

<region>
hikey=d5
hivel=127
lokey=c#5
loop_end=286712
loop_start=106553
loop_xfade=45039
lovel=0
offset=9066
pitch_keycenter=d5
release_start=308728
release_xfade=17613
sample=Cellos_espressivo_MF_D5.opus
</region>

<region>
hikey=e2
hivel=127
lokey=d#2
loop_end=286700
loop_start=106549
loop_xfade=45037
lovel=0
offset=1869
pitch_keycenter=e2
release_start=290211
release_xfade=17612
sample=Cellos_espressivo_MF_E2.opus
</region>

<region>
hikey=e3
hivel=127
lokey=d#3
loop_end=291157
loop_start=108206
loop_xfade=45737
lovel=0
offset=2411
pitch_keycenter=e3
release_start=300258
release_xfade=17886
sample=Cellos_espressivo_MF_E3.opus
</region>

<region>
hikey=e4
hivel=127
lokey=d#4
loop_end=289174
loop_start=107469
loop_xfade=45426
lovel=0
offset=1187
pitch_keycenter=e4
release_start=309700
release_xfade=17764
sample=Cellos_espressivo_MF_E4.opus
</region>

<region>
hikey=e5
hivel=127
lokey=d#5
loop_end=287177
loop_start=106726
loop_xfade=45112
lovel=0
offset=4845
pitch_keycenter=e5
release_start=303056
release_xfade=17642
sample=Cellos_espressivo_MF_E5.opus
</region>

<region>
hikey=f#2
hivel=127
lokey=f2
loop_end=285136
loop_start=105968
loop_xfade=44792
lovel=0
offset=2675
pitch_keycenter=f#2
release_start=287868
release_xfade=17516
sample=Cellos_espressivo_MF_F#2.opus
</region>

<region>
hikey=f#3
hivel=127
lokey=f3
loop_end=288755
loop_start=107313
loop_xfade=45360
lovel=0
offset=1501
pitch_keycenter=f#3
release_start=298537
release_xfade=17739
sample=Cellos_espressivo_MF_F#3.opus
</region>

<region>
hikey=f#4
hivel=127
lokey=f4
loop_end=289235
loop_start=107491
loop_xfade=45436
lovel=0
offset=2084
pitch_keycenter=f#4
release_start=314991
release_xfade=17768
sample=Cellos_espressivo_MF_F#4.opus
</region>

<region>
hikey=F6
hivel=127
lokey=f5
loop_end=291209
loop_start=108225
loop_xfade=45746
lovel=0
offset=3375
pitch_keycenter=F#5
release_start=311614
release_xfade=17889
sample=Cellos_espressivo_MF_F#5.opus
</region>

<region>
hikey=g#2
hivel=127
lokey=g2
loop_end=287744
loop_start=106937
loop_xfade=45201
lovel=0
offset=4029
pitch_keycenter=g#2
release_start=290503
release_xfade=17677
sample=Cellos_espressivo_MF_G#2.opus
</region>

<region>
hikey=g#3
hivel=127
lokey=g3
loop_end=287419
loop_start=106816
loop_xfade=45150
lovel=0
offset=1747
pitch_keycenter=g#3
release_start=293664
release_xfade=17657
sample=Cellos_espressivo_MF_G#3.opus
</region>

<region>
hikey=g#4
hivel=127
lokey=g4
loop_end=290222
loop_start=107858
loop_xfade=45591
lovel=0
offset=7864
pitch_keycenter=g#4
release_start=302953
release_xfade=17829
sample=Cellos_espressivo_MF_G#4.opus
</region>
</group>

<group>
group_label=FF
loop_mode=loop_continuous
xf_cccurve=gain
xfin_hicc1=127
xfin_locc1=85
xfout_hicc1=127
xfout_locc1=127

<region>
hikey=a#4
hivel=127
lokey=a4
loop_end=285563
loop_start=106127
loop_xfade=44859
lovel=0
offset=3141
pitch_keycenter=a#4
release_start=303406
release_xfade=17543
sample=Cellos_espressivo_FF_A#4.opus
</region>

<region>
hikey=c5
hivel=127
lokey=b4
loop_end=287582
loop_start=106877
loop_xfade=45176
lovel=0
offset=3090
pitch_keycenter=c5
release_start=306138
release_xfade=17667
sample=Cellos_espressivo_FF_C5.opus
</region>

<region>
hikey=d5
hivel=127
lokey=c#5
loop_end=286327
loop_start=106411
loop_xfade=44979
lovel=0
offset=2204
pitch_keycenter=d5
release_start=302978
release_xfade=17589
sample=Cellos_espressivo_FF_D5.opus
</region>

<region>
hikey=e5
hivel=127
lokey=d#5
loop_end=290506
loop_start=107964
loop_xfade=45635
lovel=0
offset=2300
pitch_keycenter=e5
release_start=313078
release_xfade=17846
sample=Cellos_espressivo_FF_E5.opus
</region>

<region>
hikey=f#4
hivel=127
lokey=f4
loop_end=290186
loop_start=107845
loop_xfade=45585
lovel=0
offset=5190
pitch_keycenter=f#4
release_start=310518
release_xfade=17827
sample=Cellos_espressivo_FF_F#4.opus
</region>

<region>
hikey=F6
hivel=127
lokey=f5
loop_end=285982
loop_start=106282
loop_xfade=44925
lovel=0
offset=2321
pitch_keycenter=F#5
release_start=303097
release_xfade=17568
sample=Cellos_espressivo_FF_F#5.opus
</region>

<region>
hikey=g#4
hivel=127
lokey=g4
loop_end=288372
loop_start=107170
loop_xfade=45300
lovel=0
offset=570
pitch_keycenter=g#4
release_start=309528
release_xfade=17715
sample=Cellos_espressivo_FF_G#4.opus
</region>

<region>
hikey=a#2
hivel=127
lokey=a2
loop_end=288808
loop_start=107333
loop_xfade=45368
lovel=0
offset=1713
pitch_keycenter=a#2
release_start=305174
release_xfade=17742
sample=Cellos_espressivo_FF_A#2.opus
</region>

<region>
hikey=a#3
hivel=127
lokey=a3
loop_end=291298
loop_start=108258
loop_xfade=45760
lovel=0
offset=780
pitch_keycenter=a#3
release_start=307507
release_xfade=17895
sample=Cellos_espressivo_FF_A#3.opus
</region>

<region>
hivel=127
key=c2
loop_end=286968
loop_start=106649
loop_xfade=45079
lovel=0
offset=660
release_start=290967
release_xfade=17629
sample=Cellos_espressivo_FF_C2.opus
</region>

<region>
hikey=c3
hivel=127
lokey=b2
loop_end=289411
loop_start=107557
loop_xfade=45463
lovel=0
offset=2841
pitch_keycenter=c3
release_start=312952
release_xfade=17779
sample=Cellos_espressivo_FF_C3.opus
</region>

<region>
hikey=c4
hivel=127
lokey=b3
loop_end=289786
loop_start=107696
loop_xfade=45522
lovel=0
offset=4394
pitch_keycenter=c4
release_start=317616
release_xfade=17802
sample=Cellos_espressivo_FF_C4.opus
</region>

<region>
hikey=d2
hivel=127
lokey=c#2
loop_end=288900
loop_start=107367
loop_xfade=45383
lovel=0
offset=3901
pitch_keycenter=d2
release_start=305004
release_xfade=17748
sample=Cellos_espressivo_FF_D2.opus
</region>

<region>
hikey=d3
hivel=127
lokey=c#3
loop_end=290605
loop_start=108001
loop_xfade=45651
lovel=0
offset=3415
pitch_keycenter=d3
release_start=314244
release_xfade=17852
sample=Cellos_espressivo_FF_D3.opus
</region>

<region>
hikey=d4
hivel=127
lokey=c#4
loop_end=289589
loop_start=107623
loop_xfade=45491
lovel=0
offset=3157
pitch_keycenter=d4
release_start=313716
release_xfade=17790
sample=Cellos_espressivo_FF_D4.opus
</region>

<region>
hikey=e2
hivel=127
lokey=d#2
loop_end=287889
loop_start=106991
loop_xfade=45224
lovel=0
offset=783
pitch_keycenter=e2
release_start=302369
release_xfade=17685
sample=Cellos_espressivo_FF_E2.opus
</region>

<region>
hikey=e3
hivel=127
lokey=d#3
loop_end=292479
loop_start=108697
loop_xfade=45945
lovel=0
offset=1033
pitch_keycenter=e3
release_start=312478
release_xfade=17967
sample=Cellos_espressivo_FF_E3.opus
</region>

<region>
hikey=e4
hivel=127
lokey=d#4
loop_end=289971
loop_start=107765
loop_xfade=45551
lovel=0
offset=1090
pitch_keycenter=e4
release_start=311883
release_xfade=17813
sample=Cellos_espressivo_FF_E4.opus
</region>

<region>
hikey=f#2
hivel=127
lokey=f2
loop_end=290818
loop_start=108079
loop_xfade=45684
lovel=0
offset=407
pitch_keycenter=f#2
release_start=305870
release_xfade=17865
sample=Cellos_espressivo_FF_F#2.opus
</region>

<region>
hikey=f#3
hivel=127
lokey=f3
loop_end=289697
loop_start=107663
loop_xfade=45508
lovel=0
offset=1083
pitch_keycenter=f#3
release_start=313261
release_xfade=17797
sample=Cellos_espressivo_FF_F#3.opus
</region>

<region>
hikey=g#2
hivel=127
lokey=g2
loop_end=291649
loop_start=108389
loop_xfade=45815
lovel=0
offset=492
pitch_keycenter=g#2
release_start=307342
release_xfade=17916
sample=Cellos_espressivo_FF_G#2.opus
</region>

<region>
hikey=g#3
hivel=127
lokey=g3
loop_end=289747
loop_start=107682
loop_xfade=45516
lovel=0
offset=2932
pitch_keycenter=g#3
release_start=313316
release_xfade=17800
sample=Cellos_espressivo_FF_G#3.opus
</region>
</group>